<?xml version="1.0" encoding="UTF-8" standalone="no"?>
<!-- Created with Inkscape (http://www.inkscape.org/) -->

<svg
   width="20.259293mm"
   height="17.608858mm"
   viewBox="0 0 20.259293 17.608858"
   version="1.1"
   id="svg1"
   xml:space="preserve"
   xmlns="http://www.w3.org/2000/svg"
   xmlns:svg="http://www.w3.org/2000/svg"><defs
     id="defs1" /><g
     id="layer1"
     transform="translate(-155.86022,-202.62849)"><path
       id="rect3-8-7-9-3"
       style="fill:#b86b35;stroke-width:0.236387"
       d="m 176.09341,202.62849 -1.66925,0.004 -3.87515,3.87494 0.41366,0.41366 5.15685,-0.0119 z m -2.77043,0.006 -6.63121,0.0155 3.30797,3.30775 z m -8.03015,0.0186 -6.5821,0.0153 3.28342,3.28342 z m -7.67797,0.0179 -1.75464,0.004 0.0261,4.28063 5.11593,-0.0119 0.44264,-0.44264 z m 8.76346,0.76428 v 6.1441 l 3.07194,-3.07216 z m -0.7769,0.008 -3.058,3.05779 3.058,3.058 z m -2.67,4.54431 v 5.0385 l 2.51914,-2.51936 z m 6.11712,0.0199 -2.49923,2.49946 2.49923,2.49922 z m -2.67022,3.42699 v 8.80283 h 2.67022 v -6.1326 z m -0.7769,0.0204 -2.67,2.66978 v 6.1127 h 2.67 z" /></g></svg>
